{
    "asset" : {
        "generator" : "Khronos glTF Blender I/O v0.9.36",
        "version" : "2.0"
    },
    "scene" : 0,
    "scenes" : [
        {
            "name" : "Scene",
            "nodes" : [
                0,
                1
            ]
        }
    ],
    "nodes" : [
        {
            "name" : "Light",
            "rotation" : [
                0.16907575726509094,
                0.7558803558349609,
                -0.27217137813568115,
                0.570947527885437
            ],
            "translation" : [
                2.41233491897583,
                9.023159980773926,
                -1.0441828966140747
            ]
        },
        {
            "mesh" : 0,
            "name" : "Cylinder",
            "scale" : [
                1,
                2.9567816257476807,
                1
            ],
            "translation" : [
                -0.022844314575195312,
                3.0382943153381348,
                -0.06853322684764862
            ]
        }
    ],
    "materials" : [
        {
            "doubleSided" : true,
            "name" : "Material.004",
            "pbrMetallicRoughness" : {
                "baseColorTexture" : {
                    "index" : 0,
                    "texCoord" : 0
                },
                "metallicFactor" : 0,
                "roughnessFactor" : 0.5
            }
        },
        {
            "doubleSided" : true,
            "name" : "Material.005",
            "pbrMetallicRoughness" : {
                "baseColorFactor" : [
                    0.8000000715255737,
                    0.00939292274415493,
                    0.015423872508108616,
                    1
                ],
                "metallicFactor" : 0,
                "roughnessFactor" : 0.5
            }
        },
        {
            "doubleSided" : true,
            "name" : "Material.006",
            "pbrMetallicRoughness" : {
                "baseColorFactor" : [
                    0.25294655561447144,
                    0.2499527633190155,
                    0.15494459867477417,
                    1
                ],
                "metallicFactor" : 0,
                "roughnessFactor" : 0.692307710647583
            }
        }
    ],
    "meshes" : [
        {
            "name" : "Cylinder.002",
            "primitives" : [
                {
                    "attributes" : {
                        "POSITION" : 0,
                        "NORMAL" : 1,
                        "TEXCOORD_0" : 2
                    },
                    "indices" : 3,
                    "material" : 0
                },
                {
                    "attributes" : {
                        "POSITION" : 4,
                        "NORMAL" : 5,
                        "TEXCOORD_0" : 6
                    },
                    "indices" : 7,
                    "material" : 1
                },
                {
                    "attributes" : {
                        "POSITION" : 8,
                        "NORMAL" : 9,
                        "TEXCOORD_0" : 10
                    },
                    "indices" : 11,
                    "material" : 2
                }
            ]
        }
    ],
    "textures" : [
        {
            "source" : 0
        }
    ],
    "images" : [
        {
            "bufferView" : 4,
            "mimeType" : "image/jpeg",
            "name" : "pringles"
        }
    ],
    "accessors" : [
        {
            "bufferView" : 0,
            "componentType" : 5126,
            "count" : 40,
            "max" : [
                0.9238795042037964,
                0.7166070938110352,
                0.8314692974090576
            ],
            "min" : [
                -1,
                -0.12256819009780884,
                -1
            ],
            "type" : "VEC3"
        },
        {
            "bufferView" : 1,
            "componentType" : 5126,
            "count" : 40,
            "type" : "VEC3"
        },
        {
            "bufferView" : 2,
            "componentType" : 5126,
            "count" : 40,
            "type" : "VEC2"
        },
        {
            "bufferView" : 3,
            "componentType" : 5123,
            "count" : 114,
            "type" : "SCALAR"
        },
        {
            "bufferView" : 5,
            "componentType" : 5126,
            "count" : 314,
            "max" : [
                1.025195598602295,
                1,
                1.0129307508468628
            ],
            "min" : [
                -1.0257878303527832,
                -1,
                -1.0183483362197876
            ],
            "type" : "VEC3"
        },
        {
            "bufferView" : 6,
            "componentType" : 5126,
            "count" : 314,
            "type" : "VEC3"
        },
        {
            "bufferView" : 7,
            "componentType" : 5126,
            "count" : 314,
            "type" : "VEC2"
        },
        {
            "bufferView" : 8,
            "componentType" : 5123,
            "count" : 1029,
            "type" : "SCALAR"
        },
        {
            "bufferView" : 9,
            "componentType" : 5126,
            "count" : 198,
            "max" : [
                1.025195598602295,
                1.0075076818466187,
                1.03263521194458
            ],
            "min" : [
                -1.0257878303527832,
                1,
                -1.0183483362197876
            ],
            "type" : "VEC3"
        },
        {
            "bufferView" : 10,
            "componentType" : 5126,
            "count" : 198,
            "type" : "VEC3"
        },
        {
            "bufferView" : 11,
            "componentType" : 5126,
            "count" : 198,
            "type" : "VEC2"
        },
        {
            "bufferView" : 12,
            "componentType" : 5123,
            "count" : 648,
            "type" : "SCALAR"
        }
    ],
    "bufferViews" : [
        {
            "buffer" : 0,
            "byteLength" : 480,
            "byteOffset" : 0
        },
        {
            "buffer" : 0,
            "byteLength" : 480,
            "byteOffset" : 480
        },
        {
            "buffer" : 0,
            "byteLength" : 320,
            "byteOffset" : 960
        },
        {
            "buffer" : 0,
            "byteLength" : 228,
            "byteOffset" : 1280
        },
        {
            "buffer" : 0,
            "byteLength" : 241182,
            "byteOffset" : 1508
        },
        {
            "buffer" : 0,
            "byteLength" : 3768,
            "byteOffset" : 242692
        },
        {
            "buffer" : 0,
            "byteLength" : 3768,
            "byteOffset" : 246460
        },
        {
            "buffer" : 0,
            "byteLength" : 2512,
            "byteOffset" : 250228
        },
        {
            "buffer" : 0,
            "byteLength" : 2058,
            "byteOffset" : 252740
        },
        {
            "buffer" : 0,
            "byteLength" : 2376,
            "byteOffset" : 254800
        },
        {
            "buffer" : 0,
            "byteLength" : 2376,
            "byteOffset" : 257176
        },
        {
            "buffer" : 0,
            "byteLength" : 1584,
            "byteOffset" : 259552
        },
        {
            "buffer" : 0,
            "byteLength" : 1296,
            "byteOffset" : 261136
        }
    ],
    "buffers" : [
        {
            "byteLength" : 262432,
            "uri" : "data:application/octet-stream;base64,"
        }
    ]
}
